<svg width="300" height="88" viewBox="0 0 300 88" xmlns="http://www.w3.org/2000/svg"><g><g transform="translate(40,39) scale(1)"><rect x="-1.5" y="-25" width="3" height="10" rx="1.5" fill="#7A5230"/><path d="M2 -19 Q13 -27 16 -15 Q5 -11 2 -19Z" fill="#5FA052"/></g><g><defs><clipPath id="clip-73"><circle cx="40" cy="39" r="15"/></clipPath><linearGradient id="grad-74" x1="0" y1="0" x2="0" y2="1"><stop offset="0" stop-color="#e36b5d"/><stop offset="1" stop-color="#E05B4B"/></linearGradient><filter id="grain-75" x="-12%" y="-12%" width="124%" height="124%"><feTurbulence type="fractalNoise" baseFrequency="0.75" numOctaves="3" result="noise"/><feColorMatrix in="noise" type="saturate" values="0" result="grey"/><feComponentTransfer in="grey" result="grain"><feFuncR type="linear" slope="0.6" intercept="0.65"/><feFuncG type="linear" slope="0.6" intercept="0.65"/><feFuncB type="linear" slope="0.6" intercept="0.65"/><feFuncA type="table" tableValues="1 1"/></feComponentTransfer><feComposite in="grain" in2="SourceGraphic" operator="in" result="clipped"/><feBlend in="clipped" in2="SourceGraphic" mode="multiply"/></filter></defs><g clip-path="url(#clip-73)"><g filter="url(#grain-75)"><g fill="url(#grad-74)"><circle cx="40" cy="39" r="15"/></g></g><circle cx="28.332738110421964" cy="27.332738110421968" r="23.25" fill="#e5776a"/></g></g></g><g><g transform="translate(115,48) scale(1)"><rect x="-1.5" y="-25" width="3" height="10" rx="1.5" fill="#7A5230"/><path d="M2 -19 Q13 -27 16 -15 Q5 -11 2 -19Z" fill="#5FA052"/></g><g><defs><clipPath id="clip-76"><circle cx="115" cy="48" r="15"/></clipPath><linearGradient id="grad-77" x1="0" y1="0" x2="0" y2="1"><stop offset="0" stop-color="#e36b5d"/><stop offset="1" stop-color="#E05B4B"/></linearGradient><filter id="grain-78" x="-12%" y="-12%" width="124%" height="124%"><feTurbulence type="fractalNoise" baseFrequency="0.75" numOctaves="3" result="noise"/><feColorMatrix in="noise" type="saturate" values="0" result="grey"/><feComponentTransfer in="grey" result="grain"><feFuncR type="linear" slope="0.6" intercept="0.65"/><feFuncG type="linear" slope="0.6" intercept="0.65"/><feFuncB type="linear" slope="0.6" intercept="0.65"/><feFuncA type="table" tableValues="1 1"/></feComponentTransfer><feComposite in="grain" in2="SourceGraphic" operator="in" result="clipped"/><feBlend in="clipped" in2="SourceGraphic" mode="multiply"/></filter></defs><g clip-path="url(#clip-76)"><g filter="url(#grain-78)"><g fill="url(#grad-77)"><circle cx="115" cy="48" r="15"/></g></g><circle cx="103.33273811042196" cy="36.33273811042197" r="23.25" fill="#e5776a"/></g></g></g><g><g transform="translate(177,46) scale(1)"><rect x="-1.5" y="-25" width="3" height="10" rx="1.5" fill="#7A5230"/><path d="M2 -19 Q13 -27 16 -15 Q5 -11 2 -19Z" fill="#5FA052"/></g><g><defs><clipPath id="clip-79"><circle cx="177" cy="46" r="15"/></clipPath><linearGradient id="grad-80" x1="0" y1="0" x2="0" y2="1"><stop offset="0" stop-color="#e36b5d"/><stop offset="1" stop-color="#E05B4B"/></linearGradient><filter id="grain-81" x="-12%" y="-12%" width="124%" height="124%"><feTurbulence type="fractalNoise" baseFrequency="0.75" numOctaves="3" result="noise"/><feColorMatrix in="noise" type="saturate" values="0" result="grey"/><feComponentTransfer in="grey" result="grain"><feFuncR type="linear" slope="0.6" intercept="0.65"/><feFuncG type="linear" slope="0.6" intercept="0.65"/><feFuncB type="linear" slope="0.6" intercept="0.65"/><feFuncA type="table" tableValues="1 1"/></feComponentTransfer><feComposite in="grain" in2="SourceGraphic" operator="in" result="clipped"/><feBlend in="clipped" in2="SourceGraphic" mode="multiply"/></filter></defs><g clip-path="url(#clip-79)"><g filter="url(#grain-81)"><g fill="url(#grad-80)"><circle cx="177" cy="46" r="15"/></g></g><circle cx="165.33273811042196" cy="34.33273811042197" r="23.25" fill="#e5776a"/></g></g></g><g><g transform="translate(239,44) scale(1)"><rect x="-1.5" y="-25" width="3" height="10" rx="1.5" fill="#7A5230"/><path d="M2 -19 Q13 -27 16 -15 Q5 -11 2 -19Z" fill="#5FA052"/></g><g><defs><clipPath id="clip-82"><circle cx="239" cy="44" r="15"/></clipPath><linearGradient id="grad-83" x1="0" y1="0" x2="0" y2="1"><stop offset="0" stop-color="#e36b5d"/><stop offset="1" stop-color="#E05B4B"/></linearGradient><filter id="grain-84" x="-12%" y="-12%" width="124%" height="124%"><feTurbulence type="fractalNoise" baseFrequency="0.75" numOctaves="3" result="noise"/><feColorMatrix in="noise" type="saturate" values="0" result="grey"/><feComponentTransfer in="grey" result="grain"><feFuncR type="linear" slope="0.6" intercept="0.65"/><feFuncG type="linear" slope="0.6" intercept="0.65"/><feFuncB type="linear" slope="0.6" intercept="0.65"/><feFuncA type="table" tableValues="1 1"/></feComponentTransfer><feComposite in="grain" in2="SourceGraphic" operator="in" result="clipped"/><feBlend in="clipped" in2="SourceGraphic" mode="multiply"/></filter></defs><g clip-path="url(#clip-82)"><g filter="url(#grain-84)"><g fill="url(#grad-83)"><circle cx="239" cy="44" r="15"/></g></g><circle cx="227.33273811042196" cy="32.33273811042197" r="23.25" fill="#e5776a"/></g></g></g></svg>
